IKResults
version=1
nRows=5
nColumns=63
inDegrees=yes

Units are S.I. units (second, meters, Newtons, ...)
If the header above contains a line with 'inDegrees', this indicates whether rotational values are in degrees (yes) or radians (no).

endheader
time	pelvis_tilt	pelvis_list	pelvis_rotation	pelvis_tx	pelvis_ty	pelvis_tz	hip_flexion_r	hip_adduction_r	hip_rotation_r	knee_angle_r	knee_angle_r_beta	ankle_angle_r	subtalar_angle_r	mtp_angle_r	hip_flexion_l	hip_adduction_l	hip_rotation_l	knee_angle_l	knee_angle_l_beta	ankle_angle_l	subtalar_angle_l	mtp_angle_l	L5_S1_Flex_Ext	L5_S1_Lat_Bending	L5_S1_axial_rotation	L4_L5_Flex_Ext	L4_L5_Lat_Bending	L4_L5_axial_rotation	L3_L4_Flex_Ext	L3_L4_Lat_Bending	L3_L4_axial_rotation	L2_L3_Flex_Ext	L2_L3_Lat_Bending	L2_L3_axial_rotation	L1_L2_Flex_Ext	L1_L2_Lat_Bending	L1_L2_axial_rotation	L1_T12_Flex_Ext	L1_T12_Lat_Bending	L1_T12_axial_rotation	Abs_r3	Abs_r2	Abs_r1	Abs_t1	Abs_t2	neck_flexion	neck_bending	neck_rotation	arm_flex_r	arm_add_r	arm_rot_r	elbow_flex_r	pro_sup_r	wrist_flex_r	wrist_dev_r	arm_flex_l	arm_add_l	arm_rot_l	elbow_flex_l	pro_sup_l	wrist_flex_l	wrist_dev_l
      2.03333333	    -85.20540177	    -23.65599669	     -2.75252085	     -0.81054889	      0.48397518	      0.00320579	    149.91575916	    -11.22096366	      2.54386789	    103.72431425	      1.81033080	     42.93758207	     -5.95339144	      0.00000000	    148.14946159	    -32.62952581	      6.87675069	    105.46703805	      1.84074707	     47.59206003	     -4.08479100	      0.00000000	     11.38063481	      0.24898414	     -0.22478297	     21.13497691	      0.33114890	     -0.23883191	     18.69724494	      0.60538003	     -0.23883191	     13.00692753	      0.60538003	     -0.19668510	     10.56805749	      0.50772845	     -0.18263616	      6.50289473	      0.38567643	     -0.16858723	     81.29073641	      2.81655835	     -1.25017545	      0.00000000	      0.00000000	      4.02683376	      0.13713668	      0.38338597	    -30.15523924	    -11.13944600	    -11.37875912	    112.61382267	     89.99559364	      0.00000000	      0.00000000	    -32.66853865	    -13.69106498	    -20.81701526	    115.34058765	     89.99559364	      0.00000000	      0.00000000
      2.06666667	    -84.86332047	    -23.45701123	     -2.45644370	     -0.81152510	      0.48301858	      0.00269978	    149.91544136	    -11.02876062	      2.96729975	    103.91282529	      1.81362094	     42.98724931	     -6.35108173	      0.00000000	    147.92588003	    -32.45397145	      6.78592659	    105.74332751	      1.84556923	     47.22906919	     -4.84674028	      0.00000000	     11.30308395	      0.23649915	     -0.19866920	     20.99095721	      0.31454387	     -0.21108602	     18.56983663	      0.57502403	     -0.21108602	     12.91829465	      0.57502403	     -0.17383555	     10.49604376	      0.48226906	     -0.16141872	      6.45858217	      0.36633718	     -0.14900190	     80.73679836	      2.67532565	     -1.10493849	      0.00000000	      0.00000000	      5.53745211	     -0.18948944	      0.70060186	    -30.10122070	    -11.15148331	    -11.32264251	    112.68999262	     89.99559364	      0.00000000	      0.00000000	    -32.31103820	    -13.75483813	    -20.76501727	    115.68492338	     89.99559364	      0.00000000	      0.00000000
      2.10000000	    -84.80877655	    -23.35552793	     -2.41753564	     -0.81161227	      0.48290552	      0.00217026	    149.91314145	    -10.99779503	      3.01444908	    103.97263292	      1.81466478	     43.04775288	     -6.40078188	      0.00000000	    147.82688742	    -32.44973566	      6.75860520	    105.83440102	      1.84715876	     47.19720301	     -4.90005297	      0.00000000	     11.30539207	      0.24401057	     -0.19189961	     20.99524362	      0.32453406	     -0.20389333	     18.57362864	      0.59328730	     -0.20389333	     12.92093260	      0.59328730	     -0.16791216	     10.49818708	      0.49758636	     -0.15591843	      6.45990103	      0.37797237	     -0.14392471	     80.75328505	      2.76029638	     -1.06728806	      0.00000000	      0.00000000	      5.65203641	     -0.21313895	      0.72300476	    -30.10838098	    -11.16584114	    -11.32239628	    112.64307828	     89.99559364	      0.00000000	      0.00000000	    -32.20604034	    -13.75002641	    -20.76183852	    115.75641338	     89.99559364	      0.00000000	      0.00000000
      2.13333333	    -84.51026507	    -23.08641275	     -1.79084567	     -0.81215869	      0.48269734	      0.00110812	    149.91498862	    -10.90959568	      3.78188330	    104.10743786	      1.81701757	     43.06613876	     -6.79133951	      0.00000000	    147.21171325	    -32.12744642	      6.10670841	    105.88842997	      1.84810174	     46.60055095	     -6.04298506	      0.00000000	     11.24950280	      0.19611785	     -0.19577804	     20.89145165	      0.26083675	     -0.20801417	     18.48180815	      0.47684095	     -0.20801417	     12.85705675	      0.47684095	     -0.17130578	     10.44628830	      0.39992353	     -0.15906966	      6.42796590	      0.30378656	     -0.14683353	     80.35407355	      2.21852439	     -1.08885872	      0.00000000	      0.00000000	      6.95298200	     -0.62890082	      1.16123028	    -30.14796868	    -11.03962502	    -11.32790138	    112.65927477	     89.99559364	      0.00000000	      0.00000000	    -32.00646610	    -13.92624280	    -20.81186150	    116.02507040	     89.99559364	      0.00000000	      0.00000000
      2.16666667	    -84.36190877	    -22.81881754	     -1.28639557	     -0.81207616	      0.48296409	      0.00014967	    149.91484225	    -10.86794120	      4.38566202	    104.18452637	      1.81836301	     43.17410187	     -6.93158039	      0.00000000	    146.60819376	    -31.98843412	      5.42983509	    105.82959707	      1.84707491	     46.32277094	     -6.48535364	      0.00000000	     11.23729738	      0.15011512	     -0.21216345	     20.86878497	      0.19965311	     -0.22542367	     18.46175587	      0.36498990	     -0.22542367	     12.84310718	      0.36498990	     -0.18564302	     10.43495435	      0.30611475	     -0.17238280	      6.42099172	      0.23252832	     -0.15912259	     80.26689147	      1.69813225	     -1.17998946	      0.00000000	      0.00000000	      7.44242362	     -0.67387716	      1.33105872	    -30.18724880	    -10.91739160	    -11.22400191	    112.51011976	     89.99559364	      0.00000000	      0.00000000	    -32.03754764	    -14.10561361	    -20.92184743	    116.18479498	     89.99559364	      0.00000000	      0.00000000
